<?xml version="1.0" encoding="utf-8"?>
<!-- Generator: Adobe Illustrator 16.0.0, SVG Export Plug-In . SVG Version: 6.00 Build 0)  -->
<!DOCTYPE svg PUBLIC "-//W3C//DTD SVG 1.1//EN" "http://www.w3.org/Graphics/SVG/1.1/DTD/svg11.dtd">
<svg version="1.1" id="Layer_1" xmlns="http://www.w3.org/2000/svg" xmlns:xlink="http://www.w3.org/1999/xlink" x="0px" y="0px"
	 width="159.382px" height="116.473px" viewBox="0 0 159.382 116.473" enable-background="new 0 0 159.382 116.473"
	 xml:space="preserve">
<path fill="#0A964B" d="M18.849,82.227c0-2.472-2.001-4.475-4.475-4.475l0,0c-2.472,0-4.475,2.003-4.475,4.475l0,0
	c0,2.472,2.003,4.476,4.475,4.476l0,0C16.848,86.702,18.849,84.698,18.849,82.227L18.849,82.227z"/>
<path fill="#0DE3A3" d="M88.645,22.676c50.249,2.703-22.631,72.948,13.415,85.536c8.322,2.904,44.591,5.772,52.828-2.7
	c7.095-7.295,6.279-16.423-5.969-20.897c-11.976-4.376-22.979,9.572-31.93,3.008C108.036,81.057,173.242,0,88.645,0
	C5.282,0,68.579,80.226,60.303,87.622c-9.601,8.576-33.173-23.318-52.631-9.87c-13.75,9.499-6.506,23.219,2.228,27.993
	c14.063,7.688,53.231,5.386,65.33,2.467C112.347,99.26,37.177,23.391,88.645,22.676z"/>
<path fill="#0DE3A3" d="M121.435,108.366c0,0,1.07,8.908-2.147,8.048c-3.218-0.854-2.919-9.008-2.919-9.008"/>
<path fill="#0DE3A3" d="M102.617,108.193c0,0-1.641,8.82,1.629,8.169c3.269-0.652,3.486-8.801,3.486-8.801"/>
<path fill="#0DE3A3" d="M60.246,108.366c0,0,1.073,8.908-2.147,8.048c-3.22-0.854-2.915-9.008-2.915-9.008"/>
<path fill="#0DE3A3" d="M41.43,108.193c0,0-1.641,8.82,1.628,8.169c3.267-0.652,3.487-8.801,3.487-8.801"/>
<path fill="#0DE3A3" d="M74.8,108.155c0,0,1.639,8.82-1.628,8.172c-3.267-0.653-3.485-8.804-3.485-8.804"/>
<path fill="#FFFFFF" d="M33.397,88.192c0-2.472-2.003-4.474-4.477-4.474l0,0c-2.474,0-4.475,2.002-4.475,4.474l0,0
	c0,2.474,2.001,4.477,4.475,4.477l0,0C31.395,92.669,33.397,90.666,33.397,88.192L33.397,88.192z"/>
<path fill="#FFFFFF" d="M20.042,84.614c0-2.472-2.003-4.476-4.473-4.476l0,0c-2.474,0-4.479,2.004-4.479,4.476l0,0
	c0,2.47,2.006,4.475,4.479,4.475l0,0C18.04,89.089,20.042,87.084,20.042,84.614L20.042,84.614z"/>
</svg>
