<?xml version="1.0" encoding="utf-8"?>
<!-- Generator: Adobe Illustrator 16.0.0, SVG Export Plug-In . SVG Version: 6.00 Build 0)  -->
<!DOCTYPE svg PUBLIC "-//W3C//DTD SVG 1.1//EN" "http://www.w3.org/Graphics/SVG/1.1/DTD/svg11.dtd">
<svg version="1.1" id="Layer_1" xmlns="http://www.w3.org/2000/svg" xmlns:xlink="http://www.w3.org/1999/xlink" x="0px" y="0px"
	 width="159.382px" height="116.473px" viewBox="0 0 159.382 116.473" enable-background="new 0 0 159.382 116.473"
	 xml:space="preserve">
<path fill="#0A964B" d="M20.466,83.995c0-2.254-1.824-4.08-4.08-4.08l0,0c-2.254,0-4.08,1.826-4.08,4.08l0,0
	c0,2.253,1.826,4.08,4.08,4.08l0,0C18.642,88.075,20.466,86.248,20.466,83.995L20.466,83.995z"/>
<g>
	<path fill="#0DE3A3" d="M128.594,109.606c-10.597,0-20.904-1.388-24.747-2.729c-16.594-5.795-10.731-23.55-5.062-40.721
		c3.989-12.081,8.114-24.573,3.479-31.361c-2.421-3.546-7.088-5.457-14.268-5.843c-7.171,0.102-11.899,1.843-14.371,5.324
		c-4.858,6.841-0.47,20.006,3.775,32.737c4.381,13.144,8.52,25.558,4.168,33.407c-1.793,3.234-4.958,5.419-9.406,6.491
		c-5.063,1.223-16.336,2.537-29.12,2.537c-0.001,0-0.001,0-0.001,0c-10.201,0-23.917-0.851-31.33-4.904
		c-4.562-2.493-9.315-7.898-9.652-14.353c-0.186-3.56,0.966-8.753,7.511-13.273c3.148-2.176,6.668-3.279,10.464-3.279
		c7.578,0,15.108,4.271,21.752,8.038c4.877,2.766,9.484,5.377,12.747,5.377c1.171,0,2.122-0.341,2.906-1.042
		c1.384-1.236-1.332-8.811-3.729-15.493c-5.622-15.675-13.321-37.143-3.382-51.266c6.28-8.924,18.976-13.45,37.735-13.45
		c19.02,0,31.847,4.564,38.125,13.566c9.881,14.169,1.988,35.6-3.774,51.249c-2.34,6.354-5.252,14.264-3.813,15.318
		c1.276,0.937,2.681,1.393,4.292,1.392c2.566,0,5.411-1.125,8.423-2.316c3.539-1.399,7.197-2.847,11.129-2.847
		c1.722,0,3.392,0.291,4.964,0.865c7.176,2.622,9.459,6.575,10.111,9.431c0.874,3.823-0.62,7.96-4.206,11.648
		C148.897,108.653,137.433,109.606,128.594,109.606z"/>
	<path fill="#0DE3A3" d="M88.064,7.04c77.14,0,21.642,73.908,29.806,79.895c1.604,1.177,3.281,1.631,5.023,1.631
		c5.875,0,12.487-5.164,19.552-5.163c1.493,0,3.008,0.23,4.539,0.79c11.168,4.08,11.91,12.403,5.443,19.055
		c-3.729,3.835-13.752,5.121-23.833,5.121c-10.229,0-20.518-1.325-24.34-2.659c-32.866-11.478,29.628-75.528-16.19-77.993
		c-46.927,0.651,17.656,69.831-16.19,77.993c-5.472,1.32-17.018,2.503-28.832,2.503c-12,0-24.275-1.22-30.736-4.753
		c-7.964-4.354-14.569-16.862-2.032-25.523c3.167-2.188,6.45-3.061,9.761-3.06c12.987,0.002,26.373,13.415,34.499,13.415
		c1.412,0,2.666-0.405,3.73-1.356C65.81,80.192,12.054,7.04,88.064,7.04 M88.064,4.566c-19.185,0-32.221,4.702-38.747,13.975
		c-10.309,14.648-2.484,36.465,3.229,52.396c2.004,5.589,4.491,12.521,3.954,14.251c-0.536,0.435-1.149,0.63-1.967,0.63
		c-2.937,0-7.405-2.534-12.137-5.217c-6.777-3.843-14.458-8.198-22.361-8.199c-4.053,0-7.81,1.178-11.168,3.499
		c-7.013,4.845-8.245,10.481-8.042,14.355c0.362,6.931,5.431,12.716,10.294,15.374c7.642,4.179,21.578,5.056,31.923,5.056
		c11.043,0,23.138-1.058,29.412-2.571c4.798-1.157,8.23-3.544,10.198-7.095c4.615-8.325,0.393-20.99-4.077-34.398
		c-4.146-12.438-8.435-25.3-3.939-31.629c2.218-3.124,6.595-4.694,13.38-4.8c6.721,0.374,11.049,2.108,13.229,5.301
		c4.29,6.283,0.263,18.48-3.633,30.275c-2.788,8.444-5.671,17.177-5.845,24.565c-0.211,8.974,3.716,14.934,11.673,17.712
		c4.495,1.568,15.545,2.798,25.155,2.798c9.077,0,20.889-1.019,25.606-5.871c3.889-3.999,5.496-8.54,4.525-12.786
		c-0.721-3.154-3.195-7.505-10.894-10.317c-1.708-0.624-3.521-0.94-5.388-0.94c-4.167,0-8.107,1.559-11.584,2.934
		c-2.898,1.146-5.638,2.23-7.968,2.23c-1.28,0-2.359-0.326-3.377-1.022c-0.445-1.791,2.047-8.559,4.06-14.024
		c5.526-15.006,13.878-37.685,3.628-52.383C120.68,9.309,107.512,4.566,88.064,4.566L88.064,4.566z"/>
</g>
<path fill="#0DE3A3" d="M121.921,107.829c0,0,0.978,8.123-1.956,7.338c-2.934-0.778-2.663-8.213-2.663-8.213"/>
<path fill="#0DE3A3" d="M104.765,107.671c0,0-1.496,8.043,1.484,7.449c2.98-0.595,3.178-8.024,3.178-8.024"/>
<path fill="#0DE3A3" d="M58.212,107.829c0,0,0.978,8.123-1.958,7.338c-2.937-0.778-2.658-8.213-2.658-8.213"/>
<path fill="#0DE3A3" d="M41.056,107.671c0,0-1.497,8.043,1.484,7.449c2.979-0.595,3.18-8.024,3.18-8.024"/>
<path fill="#0DE3A3" d="M71.483,107.636c0,0,1.494,8.043-1.485,7.452c-2.979-0.596-3.177-8.027-3.177-8.027"/>
<path fill="#FFFFFF" d="M31.752,85.476c0-2.254-1.827-4.079-4.083-4.079l0,0c-2.255,0-4.081,1.825-4.081,4.079l0,0
	c0,2.256,1.825,4.082,4.081,4.082l0,0C29.926,89.558,31.752,87.732,31.752,85.476L31.752,85.476z"/>
<path fill="#FFFFFF" d="M19.575,82.213c0-2.254-1.826-4.08-4.078-4.08l0,0c-2.256,0-4.084,1.826-4.084,4.08l0,0
	c0,2.251,1.828,4.08,4.084,4.08l0,0C17.749,86.293,19.575,84.464,19.575,82.213L19.575,82.213z"/>
</svg>
